<svg xmlns="http://www.w3.org/2000/svg" viewBox="0 0 351.89 160.81"><defs><style>.cls-1{fill:#fff;}</style></defs><title>资源 1</title><g id="图层_2" data-name="图层 2"><g id="图层_1-2" data-name="图层 1"><path class="cls-1" d="M133.3,50.74,129.05,37c3.24-.47,6.24-.92,9.25-1.32l53.53-7.06c3.93-.52,7.87-1,11.78-1.66a2.55,2.55,0,0,0,1.79-1.47c.77-4,1.35-8,2-12.12a8.48,8.48,0,0,0-1.64-.32c-15,.56-30,1.1-45,1.78a5.8,5.8,0,0,0-3.53,1.68c-3.58,3.78-7,7.76-10.46,11.62-.47.51-1.39,1.18-1.86,1-5-1.62-9.94-3.4-15.22-5.25,6.4-6.21,12.62-12,18.49-18.06A13.31,13.31,0,0,1,158.41,1.6C179.6,1.21,200.79.56,222,0c.87,0,1.74,0,3,0-.86,5.06-1.65,9.89-2.49,14.71C221.3,21.49,220,28.25,218.92,35a2.68,2.68,0,0,1-2.63,2.63q-38,6-76,12.09C138.05,50.12,135.79,50.4,133.3,50.74Z"/><path class="cls-1" d="M239.38,50.78,235.13,37c4.76-.66,9.25-1.31,13.76-1.92l38-5c7.43-1,14.86-1.94,22.27-3,.84-.13,2.13-.9,2.26-1.56.83-3.95,1.37-8,2-12.09a6.77,6.77,0,0,0-1.41-.31c-15.18.57-30.36,1.13-45.54,1.8a5.06,5.06,0,0,0-3.09,1.48q-5.25,5.61-10.22,11.47c-1.06,1.25-1.9,1.67-3.56,1-4.42-1.7-8.93-3.17-13.54-4.78,2.45-2.54,4.69-5,7-7.26,4.09-4,8.35-7.89,12.31-12a9.35,9.35,0,0,1,7.2-3c17.49-.35,35-.88,52.46-1.28C320.32.3,325.51.4,331,.4c-.79,4.7-1.59,9.53-2.43,14.36-1.18,6.77-2.45,13.53-3.56,20.32a2.66,2.66,0,0,1-2.66,2.59q-31.21,4.9-62.41,9.93C253.14,48.68,246.36,49.7,239.38,50.78Z"/><path class="cls-1" d="M129.08,84.47c8.29-1.12,16.33-2.23,24.36-3.29q24.52-3.27,49.05-6.47c2-.26,3-.94,3.24-3.19.34-3.59,1.14-7.13,1.78-10.93-1.66,0-3.13,0-4.6,0-13.77.5-27.54,1-41.31,1.48a5.79,5.79,0,0,0-4.76,2.21c-3.22,3.86-6.58,7.62-10,11.32a3.13,3.13,0,0,1-2.55,1c-4.77-1.53-9.47-3.28-13.6-4.75,3.63-3.95,7.3-8.06,11.11-12,2.81-2.93,5.71-5.79,8.78-8.45A7.72,7.72,0,0,1,155,49.48c22.43-.68,44.86-1.23,67.29-1.8.77,0,1.55,0,2.71,0-.67,4-1.28,7.84-1.95,11.62-1.35,7.74-2.78,15.45-4.08,23.19-.27,1.6-.78,2.36-2.54,2.64-15.07,2.32-30.13,4.78-45.19,7.19-11.66,1.87-23.33,3.7-35,5.64-2.05.34-3.22.15-3.78-2.17C131.52,92,130.26,88.38,129.08,84.47Z"/><path class="cls-1" d="M235.16,84.48c6.87-.94,13.5-1.87,20.13-2.75q19-2.55,38-5c5.06-.67,10.13-1.38,15.21-2,2-.23,3.06-.87,3.27-3.16.32-3.58,1.13-7.13,1.78-11-1.47,0-2.76,0-4,0-14.12.51-28.25,1-42.37,1.65a6.52,6.52,0,0,0-4,1.92c-3.53,3.71-6.78,7.68-10.25,11.45a3.2,3.2,0,0,1-2.54,1c-4.77-1.53-9.47-3.29-14.75-5.16,1.57-1.47,2.89-2.67,4.18-3.91,5.65-5.46,11.25-11,17-16.36a6.15,6.15,0,0,1,3.64-1.69c23.05-.69,46.1-1.27,69.15-1.86a12.38,12.38,0,0,1,1.4.17c-.65,3.89-1.26,7.68-1.92,11.45C327.73,67,326.31,74.71,325,82.45c-.26,1.57-.71,2.38-2.51,2.66-15.07,2.33-30.12,4.78-45.18,7.2C265.64,94.18,254,96,242.32,98c-2.3.39-3.3-.1-3.87-2.41C237.56,91.89,236.32,88.32,235.16,84.48Z"/><path class="cls-1" d="M181.88,75.09c-4.53.62-8.76,1.25-13,1.75a2.72,2.72,0,0,1-2.08-.66c-2.19-2.39-4.24-4.91-6.7-7.81l9.52-2.17c6.6-1.52,6.6-1.53,9.81,4.34C180.21,72,181,73.44,181.88,75.09Z"/><path class="cls-1" d="M282.21,64.71c1.9,3.4,3.78,6.74,5.82,10.37-4.63.64-8.94,1.25-13.26,1.79a2.24,2.24,0,0,1-1.68-.42c-2.26-2.53-4.42-5.15-6.92-8.1Z"/><path class="cls-1" d="M181.91,27.36c-4.42.63-8.48,1.32-12.57,1.72a4.34,4.34,0,0,1-3.09-1.19c-2.09-2.12-3.93-4.48-6.19-7.13,4.11-.93,7.88-1.87,11.69-2.62,5.5-1.07,3.94-1.58,6.63,2.93C179.58,23.08,180.67,25.14,181.91,27.36Z"/><path class="cls-1" d="M288.05,27.36c-4.63.65-8.86,1.29-13.11,1.8a2.69,2.69,0,0,1-2.08-.61c-2.24-2.45-4.35-5-6.77-7.86,5.28-1.12,10.16-2.18,15.05-3.16a1.82,1.82,0,0,1,1.54.55C284.48,21.06,286.18,24.1,288.05,27.36Z"/><path class="cls-1" d="M82.73,72.45l38.17-1.92c-.22-3.29-.42-6.31-.63-9.42L22.74,63.68c.21,4.05.4,7.73.61,11.65l44.08-2.12c.18,3.45.34,6.73.51,10H56.17c-.24,4.17-.46,8.17-.67,11.71,8.2,0,16,0,23.88,0,3.53,0,3.42-.06,3.37-3.5C82.67,85.19,82.73,79,82.73,72.45Z"/><path class="cls-1" d="M28.59,60,116,56.56V48.08L27.88,49.54C28.13,53.2,28.36,56.51,28.59,60Z"/><path class="cls-1" d="M100.51,75.38c-3.24.73-6.43,1.68-9.94,2.63,4.72,5.46,9.2,10.65,13.71,15.81a1.65,1.65,0,0,0,1.34.54c4.35-1.45,8.67-3,13.31-4.62-5.61-4.77-10.83-9.23-16.1-13.62A3.16,3.16,0,0,0,100.51,75.38Z"/><path class="cls-1" d="M43.16,76.91c-5.33,4.47-10.61,9-16.34,13.9,4.6,1.62,8.62,3.09,12.69,4.43a2.36,2.36,0,0,0,2-.55c4.53-5,9-10.16,13.7-15.53-3.6-1-6.86-1.93-10.15-2.74A2.47,2.47,0,0,0,43.16,76.91Z"/><path class="cls-1" d="M91.13,11.37l27.66-1.07c-.15-3.24-.28-6.12-.42-9.24L25.3,2.57V14.22L53.51,13.1v4.54H28.36v28.2l86.28-2.23V15.8H91.13Zm5.81,30.87H92.61v-6.5h4.33Zm6.34,0H99v-6.5h4.33Zm5.88,0h-4.33v-6.5h4.33ZM91.89,22.05H108v5.71H91.89ZM77.28,12.42v4l-9.8.54c-.09-1.63-.17-3-.26-4.56ZM38.23,42.24H33.9v-6.5h4.33Zm6.34,0H40.24v-6.5h4.33Zm5.88,0H46.12v-6.5h4.33Zm.61-14.48H34.94V22.05H51.06Zm6.58,14.48H53.31v-6.5h4.33Zm6.34,0H59.65v-6.5H64Zm5.88,0H65.53v-6.5h4.33Zm7.51,0H73v-6.5h4.33Zm1.77-16H63.59v-1.7H76.26V21.06l2.88,3.51Zm4.57,16H79.38v-6.5h4.33Zm5.87,0H85.25v-6.5h4.33Z"/><path class="cls-1" d="M24.14,129.72a1.85,1.85,0,1,1-1.85-1.85A1.85,1.85,0,0,1,24.14,129.72Z"/><path class="cls-1" d="M52.23,129.72a1.85,1.85,0,1,1-1.85-1.85A1.85,1.85,0,0,1,52.23,129.72Z"/><rect class="cls-1" y="130.81" width="351.89" height="2.6"/><path class="cls-1" d="M342.08,124.38c-9.15-13.91-43.65-14.46-43.65-14.46H17.91v19.8H63.83a1.85,1.85,0,1,0,3.7,0H91.92a1.85,1.85,0,0,0,3.7,0H107a1.85,1.85,0,0,0,3.7,0h24.39a1.85,1.85,0,0,0,3.7,0h10.72a1.85,1.85,0,1,0,3.7,0h24.39a1.85,1.85,0,0,0,3.7,0h10.48a1.85,1.85,0,1,0,3.69,0h24.4a1.85,1.85,0,0,0,3.7,0H234a1.85,1.85,0,1,0,3.7,0H262.1a1.85,1.85,0,0,0,3.7,0h9.47v-.06c1.57,0,68.07.4,68.19-1S342.08,124.38,342.08,124.38ZM45.46,122.13H40.84v-4.62h4.62Zm9.69,0H50.53v-4.62h4.62Zm8.8,0H59.33v-4.62H64Zm12,0H71.28v-4.62H75.9Zm10.29,0H81.58v-4.62h4.61Zm10.28,0H91.85v-4.62h4.62Zm9.68,0h-4.61v-4.62h4.61Zm8.8,0h-4.61v-4.62H115Zm12,0h-4.62v-4.62h4.62Zm10.29,0h-4.62v-4.62h4.62Zm9.46,0h-4.61v-4.62h4.61Zm9.21,0h-4.62v-4.62h4.62Zm12.93,0h-4.62v-4.62h4.62Zm8.93,0h-4.61v-4.62h4.61Zm9.55,0h-4.61v-4.62h4.61Zm12,0h-4.62v-4.62h4.62Zm10.29,0h-4.62v-4.62h4.62Zm9.46,0h-4.61v-4.62H219Zm9.21,0h-4.62v-4.62h4.62Zm9.31,0h-4.62v-4.62h4.62Zm9.17,0h-4.61v-4.62h4.61Zm12,0H254v-4.62h4.62Zm10.29,0h-4.62v-4.62h4.62Zm9.46,0h-4.61v-4.62h4.61Zm9.8,0h-4.62v-4.62h4.62Z"/><path class="cls-1" d="M56.79,137.67h9.44c4.85,0,8.14,2.73,8.14,7.06,0,5-3.75,7.23-8.25,7.23H61.73v8.52H56.79ZM61.73,148h3.76c2.29,0,3.9-.87,3.9-3.2s-1.7-3.24-3.79-3.24H61.73Z"/><path class="cls-1" d="M83,137.67v22.81H78.07V137.67Z"/><path class="cls-1" d="M92.7,155.21l-1.78,5.27H86.07l7.75-22.81H100l8.08,22.81h-5.19L101,155.21Zm7.28-4c-1.62-4.82-2.66-7.89-3.21-9.94h0c-.56,2.25-1.7,5.82-3,9.94Z"/><path class="cls-1" d="M131.7,149c0,6.34-3.81,11.81-11.22,11.81-7.16,0-10.91-5.2-10.91-11.74s4.14-11.73,11.22-11.73C127.47,137.34,131.7,142,131.7,149Zm-17,0c0,4.46,2,7.83,6,7.83,4.39,0,5.94-3.68,5.94-7.74,0-4.32-1.76-7.71-6-7.71S114.66,144.53,114.66,149Z"/><path class="cls-1" d="M144,137.67h9c6.65,0,11,4.37,11,11.12s-4.21,11.69-11.19,11.69H144ZM149,156.49h3.7c4.37,0,6.31-3.25,6.31-7.69,0-3.73-1.81-7.15-6.28-7.15H149Z"/><path class="cls-1" d="M173,137.67v13.59c0,4.38,2.25,5.67,4.71,5.67,2.82,0,4.59-1.53,4.59-5.67V137.67h4.94V151c0,7.8-4.57,9.79-9.6,9.79s-9.58-2.07-9.58-9.69V137.67Z"/><path class="cls-1" d="M213.4,149c0,6.34-3.82,11.81-11.23,11.81-7.15,0-10.9-5.2-10.9-11.74s4.14-11.73,11.22-11.73C209.17,137.34,213.4,142,213.4,149Zm-17,0c0,4.46,2,7.83,6,7.83,4.39,0,5.94-3.68,5.94-7.74,0-4.32-1.77-7.71-6-7.71S196.36,144.53,196.36,149Z"/><path class="cls-1" d="M225.72,137.67h9c6.65,0,11,4.37,11,11.12s-4.21,11.69-11.19,11.69h-8.84Zm4.93,18.82h3.7c4.37,0,6.31-3.25,6.31-7.69,0-3.73-1.81-7.15-6.28-7.15h-3.73Z"/><path class="cls-1" d="M254.74,137.67v13.59c0,4.38,2.25,5.67,4.71,5.67,2.82,0,4.59-1.53,4.59-5.67V137.67H269V151c0,7.8-4.57,9.79-9.6,9.79s-9.58-2.07-9.58-9.69V137.67Z"/><path class="cls-1" d="M295.09,149c0,6.34-3.81,11.81-11.22,11.81-7.16,0-10.9-5.2-10.9-11.74s4.14-11.73,11.22-11.73C290.87,137.34,295.09,142,295.09,149Zm-17,0c0,4.46,2,7.83,6,7.83,4.39,0,5.94-3.68,5.94-7.74,0-4.32-1.77-7.71-6-7.71S278.06,144.53,278.06,149Z"/></g></g></svg>